<?xml version="1.0" encoding="utf-8"?>
<!-- Generator: Adobe Illustrator 25.2.2, SVG Export Plug-In . SVG Version: 6.00 Build 0)  -->
<svg version="1.1" id="레이어_1" xmlns="http://www.w3.org/2000/svg" xmlns:xlink="http://www.w3.org/1999/xlink" x="0px"
	 y="0px" viewBox="0 0 1100 150" style="enable-background:new 0 0 1100 150;" xml:space="preserve">
<style type="text/css">
	.st0{fill:#574928;}
</style>
<path class="st0" d="M1100,54.46h-17.87V43.93H1100V18.18h-17.87V0h-27.31v18.18h-12.44V0H310.56v0H57.62v18.18H45.18V0H17.87v18.18
	H0v25.75h17.87v10.52H0v41.09h17.87v10.52H0v25.76h17.87V150h27.31v-18.18h12.44l0,18.18h984.76v-18.18h12.44V150h27.31v-18.18H1100
	v-25.76h-17.87V95.55H1100V72.19l0,0V54.46z M1082.13,25.83h12.44v10.44h-12.44V25.83z M17.87,36.28H5.43V25.84h12.44V36.28z
	 M17.87,124.17H5.43v-10.44h12.44V124.17z M1062.25,7.66h12.44v10.52h-12.44V7.66z M1062.25,25.84h12.44v10.44h-12.44l0,0l0,0V25.84
	z M1074.69,43.93v10.52h-12.44V43.93H1074.69z M1042.38,25.84h12.44v10.44h-12.44V25.84z M45.18,25.84h12.44v10.44H45.18V25.84z
	 M25.31,7.66h12.44v10.52H25.31V7.66z M25.31,25.84h12.44v10.44H25.31V25.84z M25.31,43.93h12.44v10.52H25.31V43.93z M37.75,142.34
	H25.31v-10.52h12.44V142.34z M25.31,124.17v-10.44h12.44v10.44H25.31z M37.75,106.07H25.31V95.55h12.44V106.07z M57.62,124.17H45.18
	v-10.44h12.44l0,7.14V124.17z M1054.82,124.17h-12.44v-10.44h12.44V124.17z M1074.69,142.34h-12.44v-10.52h12.44V142.34z
	 M1074.69,124.17h-12.44v-10.44h12.44V124.17z M1074.69,106.07h-12.44V95.55h12.44V106.07z M1094.57,113.72v10.44h-12.44v-10.44
	H1094.57z M1094.57,87.89h-12.44l0,0h-21.41h-5.9l0,0l0,0v18.18h-17.87v0h0V128h0v3.83l0,0l0,10.52H63.05v-10.53l0,0v-25.75l0,0v0
	H45.18V87.89H17.87l0,0H5.43V72.19h0l0-10.08l17.16,0h22.59v0l0,0V43.93h17.87V22.01h0l0-14.36l344.19,0l0,0h629.7v10.52l0,0v3.83h0
	v21.92h17.88v18.18l0,0v0h24.59v0h15.16v10.08h0V87.89z"/>
</svg>
